<svg width="26" height="26" viewBox="0 0 26 26" fill="none" xmlns="http://www.w3.org/2000/svg">
<path d="M24.6459 18.956L20.8891 10.182C19.6168 7.20531 17.2762 7.08528 15.7039 9.91793L13.4353 14.0109C12.2831 16.0874 10.1346 16.2674 8.64628 14.407L8.38222 14.0709C6.83386 12.1265 4.64936 12.3665 3.5331 14.587L1.46863 18.728C0.0162941 21.6086 2.11678 25.0054 5.33352 25.0054H20.649C23.7697 25.0054 25.8702 21.8247 24.6459 18.956Z" stroke="#292D32" stroke-linecap="round" stroke-linejoin="round"/>
<path d="M6.98999 8.20166C8.97867 8.20166 10.5908 6.58951 10.5908 4.60083C10.5908 2.61215 8.97867 1 6.98999 1C5.00131 1 3.38916 2.61215 3.38916 4.60083C3.38916 6.58951 5.00131 8.20166 6.98999 8.20166Z" stroke="#292D32" stroke-linecap="round" stroke-linejoin="round"/>
</svg>
